<?xml version="1.0" encoding="UTF-8" standalone="no"?>
<!DOCTYPE svg PUBLIC "-//W3C//DTD SVG 1.1//EN" "http://www.w3.org/Graphics/SVG/1.1/DTD/svg11.dtd">
<svg width="100%" height="100%" viewBox="0 0 360 360" version="1.1" xmlns="http://www.w3.org/2000/svg" xmlns:xlink="http://www.w3.org/1999/xlink" xml:space="preserve" xmlns:serif="http://www.serif.com/" style="fill-rule:evenodd;clip-rule:evenodd;stroke-linejoin:round;stroke-miterlimit:2;">
    <g id="Layer-1" serif:id="Layer 1">
        <g transform="matrix(1.10791,0,0,1.08388,-20.4231,-112.341)">
            <path d="M180.649,206.858C179.234,208.031 177.028,209.544 173.907,213.614C170.47,218.102 168.465,219.161 167.959,219.611C166.447,220.946 162.04,225.807 158.249,229.795L154.416,229.734C150.186,229.682 140.04,233.567 134.492,239.583C131.233,242.609 127.781,245.272 124.205,247.71C123.509,248.187 122.818,248.668 122.114,249.123C116.859,252.54 105.62,258.204 105.62,258.204L105.62,262.299L153.776,262.299L153.775,262.3L256.185,262.3L256.185,256.53C252.183,253.297 247.878,249.774 243.931,246.529C242.093,245.018 240.295,243.58 238.709,242.227C232.819,237.206 226.551,234.243 226.551,234.243C221.299,231.236 220.846,236.117 214.951,238.945C207.774,232.043 208.41,233.067 201.801,225.734C196.066,219.369 197.632,219.34 195.835,216.88C194.635,215.235 186.543,207.313 181.495,206.575C181.561,206.663 180.878,206.668 180.649,206.858Z" style="fill:white;fill-rule:nonzero;"/>
        </g>
        <g transform="matrix(1,0,0,1,191.831,131.274)">
            <path d="M0,25.751C-0.104,25.658 -0.192,25.567 -0.308,25.469C-8.706,18.498 -26.632,15.182 -21.717,6.842C-21.066,5.738 -20.288,4.776 -19.436,3.923C-13.96,-1.554 -5.4,-2.531 -7.503,-7.778C-8.699,-10.757 -11.644,-14.925 -12.203,-15.274C-15.655,-12.913 -14.78,-13.566 -17.924,-9.466C-21.361,-4.978 -20.622,-6.085 -23.476,-3.689C-23.845,-3.376 -24.269,-3.016 -24.775,-2.566C-26.287,-1.231 -28.409,1.355 -30.781,4.399C-34.875,9.648 -39.72,16.266 -43.511,20.254L-37.597,8.814L-37.415,8.46C-41.645,8.408 -51.791,12.293 -57.339,18.309C-60.598,21.335 -64.05,23.998 -67.626,26.436C-68.322,26.913 -69.013,27.394 -69.717,27.849C-77.703,33.041 -86.326,37.141 -95.237,41.025L-25.093,41.025C-15.192,30.675 6.087,31.37 0,25.751" style="fill:rgb(20,20,20);fill-rule:nonzero;"/>
        </g>
        <g transform="matrix(1,0,0,1,243.931,133.54)">
            <path d="M0,22.989C-1.838,21.478 -3.613,20.012 -5.222,18.687C-10.209,14.568 -13.769,11.605 -13.769,11.605C-18.119,7.696 -20.377,15.285 -26.272,18.113C-33.449,11.211 -35.521,9.527 -42.13,2.194C-47.865,-4.171 -47.201,-6.006 -48.998,-8.466C-50.198,-10.111 -52.485,-12.033 -58.533,-15.771C-56.485,-13.004 -52.543,-9.987 -54.604,-6.232C-57.696,-0.61 -61.974,-1.601 -64.737,2.963C-66.159,5.316 -65.742,7.148 -64.273,8.741C-63.626,9.444 -62.799,10.101 -61.802,10.732C-56.401,14.137 -46.736,16.852 -42.566,22.493C-42.33,22.813 -42.182,23.108 -42.004,23.412C-37.72,30.803 -51.074,33.211 -60.156,38.76L19.475,38.76C13.989,34.444 6.507,28.339 0,22.989" style="fill:rgb(190,30,45);fill-rule:nonzero;"/>
        </g>
    </g>
</svg>
